<svg width="32" height="32" xmlns="http://www.w3.org/2000/svg">

 <g>
  <title>background</title>
  <rect fill="none" id="canvas_background" height="402" width="582" y="-1" x="-1"/>
 </g>
 <g>
  <title>Layer 1</title>
  <path fill="#ffffff" id="svg_2" d="m4.488371,16.281273l6.721011,-6.72c0.67099,-0.671997 0.67099,-1.759999 0,-2.432c-0.671997,-0.672001 -1.76001,-0.672001 -2.432007,0l-7.910005,7.91c-0.343994,0.341999 -0.509994,0.792999 -0.503998,1.239999c-0.005997,0.448 0.160004,0.896 0.503998,1.239l7.910005,7.91c0.669998,0.671001 1.76001,0.671001 2.432007,0c0.673004,-0.671999 0.67099,-1.76 0,-2.431999l-6.721011,-6.715l0,0z"/>
  <path fill="#ffffff" id="svg_3" d="m31.206367,14.761002l-7.910004,-7.91c-0.671997,-0.672001 -1.759995,-0.672001 -2.432999,0c-0.671997,0.669998 -0.671997,1.759998 0,2.429996l6.720001,6.719002l-6.720001,6.721001c-0.671997,0.671 -0.671997,1.758999 0,2.431c0.669998,0.671999 1.759003,0.671999 2.432999,0l7.910004,-7.91c0.341995,-0.342001 0.509995,-0.791 0.503998,-1.24c0.002991,-0.450003 -0.165009,-0.899 -0.503998,-1.240999z"/>
  <path d="m16.28438,25.937202c-0.173286,1.018791 -1.166585,1.709612 -2.221771,1.542141l0,0c-1.05314,-0.167471 -1.7669,-1.130438 -1.593615,-2.147232l3.288305,-19.343039c0.173285,-1.017792 1.168663,-1.707619 2.220747,-1.540144l0,0c1.053141,0.167471 1.766916,1.127447 1.59363,2.147232l-3.287296,19.341042z"/>
  <path fill="#ffffff" id="svg_4" d="m16.28438,25.937202c-0.173286,1.018791 -1.166585,1.709612 -2.221771,1.542141l0,0c-1.05314,-0.167471 -1.7669,-1.130438 -1.593615,-2.147232l3.288305,-19.343039c0.173285,-1.017792 1.168663,-1.707619 2.220747,-1.540144l0,0c1.053141,0.167471 1.766916,1.127447 1.59363,2.147232l-3.287296,19.341042z"/>
 </g>
</svg>