<svg width="53.763" height="53.763" xmlns="http://www.w3.org/2000/svg">

 <g>
  <title>background</title>
  <rect fill="none" id="canvas_background" height="402" width="582" y="-1" x="-1"/>
 </g>
 <g>
  <title>Layer 1</title>
  <circle fill="#00007f" id="svg_1" r="26.881" cy="26.969" cx="26.881"/>
  <polygon id="svg_2" points="14.102,16.25 39.75,16.25 37.333,41.792 26.926,44.706 16.417,41.667 " fill="#FFFFFF"/>
  <polygon fill="#007fff" id="svg_3" points="19.289,24.584 18.938,21.459 34.917,21.459 34.583,24.542 26.761,28.017 34.261,27.969 33.49,37.376 26.934,39.209   20.387,37.292 20.053,32.459 23.178,32.417 23.344,34.959 26.98,36.042 30.636,35.001 31.136,30.959 20.053,30.917 19.659,27.885   27.428,24.641 "/>
  <polygon id="svg_4" points="22.814,11.225 22.814,9.517 20.481,9.517 18.939,9.517 18.773,9.517 18.773,14.167 18.939,14.167   20.481,14.167 22.814,14.167 22.814,12.458 20.481,12.458 20.481,11.225 " fill="#FFFFFF"/>
  <polygon id="svg_5" points="28.138,9.517 24.263,9.517 24.263,11.225 25.7,12.458 24.263,12.458 24.263,14.167 28.138,14.167   28.138,12.458 26.659,11.225 28.138,11.225 " fill="#FFFFFF"/>
  <polygon id="svg_6" points="33.46,9.517 29.585,9.517 29.585,11.225 31.022,12.458 29.585,12.458 29.585,14.167 33.46,14.167   33.46,12.458 31.981,11.225 33.46,11.225 " fill="#FFFFFF"/>
 </g>
</svg>