<svg width="67" height="67" xmlns="http://www.w3.org/2000/svg">

 <g>
  <title>background</title>
  <rect fill="none" id="canvas_background" height="402" width="582" y="-1" x="-1"/>
 </g>
 <g>
  <title>Layer 1</title>
  <ellipse ry="27.042206" rx="27.341843" id="svg_2" cy="33.749698" cx="33.350186" stroke-width="1.5" stroke="#000" fill="#fff"/>
  <path id="svg_1" fill-rule="evenodd" clip-rule="evenodd" fill="#010101" d="m19.561617,34.110336c-0.060202,0 0.659998,1.527431 0.680065,1.527431c1.571953,2.811275 4.602142,4.558823 9.713778,5.043758c-0.729118,0.545269 -1.605396,1.579945 -1.726919,2.775517c-0.91753,0.584377 -2.762623,0.777687 -4.196335,0.331852c-2.010092,-0.624596 -2.779346,-4.543175 -5.788353,-3.984497c-0.651077,0.119556 -0.521755,0.543041 0.04125,0.903942c0.91753,0.584373 1.780432,1.316254 2.446003,2.87273c0.511723,1.195572 1.586447,3.330849 4.986771,3.330849c1.34898,0 2.294382,-0.159786 2.294382,-0.159786s0.025642,3.051506 0.025642,4.23814c0,1.368771 -1.875195,1.754253 -1.875195,2.412376c0,0.260349 0.620975,0.284927 1.119318,0.284927c0.985537,0 3.035767,-0.810085 3.035767,-2.232479c0,-1.129646 0.018951,-4.927551 0.018951,-5.593498c0,-1.452564 0.790434,-1.912918 0.790434,-1.912918s0.09811,7.754467 -0.188412,8.795845c-0.336687,1.222393 -0.944284,1.049202 -0.944284,1.594471c0,0.811207 2.468304,0.200008 3.286606,-1.58218c0.63213,-1.384407 0.35564,-8.994732 0.35564,-8.994732l0.674496,-0.013409c0,0 0.037903,3.482803 0.014492,5.075043c-0.023411,1.64922 -0.137127,3.734211 0.857327,4.717487c0.653309,0.646946 2.769318,1.781063 2.769318,0.74416c0,-0.602257 -1.159454,-1.097248 -1.159454,-2.727474l0,-7.503063c0.926449,0 0.78709,2.467125 0.78709,2.467125l0.068005,4.584526c0,0 -0.205132,1.669334 1.833942,2.36768c0.71909,0.249172 2.257595,0.316219 2.330059,-0.100559c0.072472,-0.416771 -1.852894,-1.036907 -1.870735,-2.328575c-0.011147,-0.789974 0.035675,-1.250324 0.035675,-4.678383c0,-3.428051 -0.467125,-4.695137 -2.09594,-5.705231c5.025795,-0.5084 8.137367,-1.733021 9.652466,-5.01247c0.118172,0.003353 0.618748,-1.531898 0.552975,-1.531898c0.340027,-1.238037 0.523979,-2.702892 0.559654,-4.437031c-0.008915,-4.704079 -2.29438,-6.367828 -2.732521,-7.148861c0.646618,-3.56102 -0.109257,-5.181189 -0.45932,-5.737637c-1.295471,-0.453648 -4.505154,1.167641 -6.259945,2.309578c-2.858501,-0.82349 -8.903275,-0.744158 -11.169786,0.212299c-4.181841,-2.948709 -6.394838,-2.497295 -6.394838,-2.497295s-1.430367,2.524113 -0.377939,6.2181c-1.375736,1.727438 -2.401409,2.949829 -2.401409,6.189049c0.001116,1.825766 0.219627,3.459345 0.711281,4.885092zm13.887812,32.886101c-18.471004,0 -33.445806,-15.008358 -33.445806,-33.520763c0,-18.513511 14.974803,-33.520753 33.445806,-33.520753s33.445812,15.007243 33.445812,33.520753c0,18.512405 -14.9748,33.520763 -33.445812,33.520763z"/>
 </g>
</svg>