<svg width="128" height="128" xmlns="http://www.w3.org/2000/svg">
 <g>
  <title>background</title>
  <rect fill="none" id="canvas_background" height="38.636852" width="38.636852" y="-1" x="-1"/>
 </g>

 <g>
  <title>Layer 1</title>
  <path fill="#ff26be" id="svg_2" d="m63.713799,124.08007c-32.779692,0 -59.50775,-27.113655 -59.50775,-60.366234s26.728058,-60.366244 59.50775,-60.366244s59.507744,27.113652 59.507744,60.366244s-26.728058,60.366234 -59.507744,60.366234z" class="st0"/>
  <path fill="#2e001f" id="svg_3" d="m65.144882,110.341331c-26,0 -47.199999,-21.199997 -47.199999,-47.199993s21.199999,-47.200002 47.199999,-47.200002s47.199997,21.200002 47.199997,47.200002s-21.199997,47.199993 -47.199997,47.199993z" class="st0"/>
  <path fill="#230017" id="svg_4" d="m64,19.700001c24.400002,0 44.300003,19.899998 44.300003,44.299999s-19.900002,44.300003 -44.300003,44.300003s-44.299999,-19.900002 -44.299999,-44.300003s19.899998,-44.299999 44.299999,-44.299999m0,-5.700001c-27.599998,0 -50,22.400002 -50,50s22.400002,50 50,50s50,-22.400002 50,-50s-22.400002,-50 -50,-50l0,0z" class="st1"/>
  <path fill="#bf1d8f" id="svg_1" d="m64.000427,7.400277c31.174309,0 56.599258,25.424926 56.599258,56.599212s-25.42495,56.59922 -56.599258,56.59922s-56.599262,-25.424927 -56.599262,-56.59922s25.424945,-56.599212 56.599262,-56.599212m0,-7.282518c-35.262741,0 -63.881784,28.61902 -63.881784,63.88173s28.619043,63.881737 63.881784,63.881737s63.881783,-28.619011 63.881783,-63.881737s-28.619041,-63.88173 -63.881783,-63.88173l0,0z" class="st1"/>
 </g>
</svg>