<svg width="128" height="128" xmlns="http://www.w3.org/2000/svg">

 <g>
  <title>background</title>
  <rect fill="none" id="canvas_background" height="402" width="582" y="-1" x="-1"/>
 </g>
 <g>
  <title>Layer 1</title>
  <path fill="#261300" id="svg_3" d="m64.000114,127.637489c-35.134108,0 -63.781915,-28.582542 -63.781915,-63.636604s28.647807,-63.636598 63.781915,-63.636598s63.781898,28.58254 63.781898,63.636598s-28.647804,63.636604 -63.781898,63.636604z" class="st0"/>
  <path fill="#ff7f18" id="svg_4" d="m63.998894,7.328236c31.143227,0 56.542824,25.457485 56.542824,56.671688s-25.399597,56.671692 -56.542824,56.671692s-56.542814,-25.457489 -56.542814,-56.671692s25.399595,-56.671688 56.542814,-56.671688m0,-7.291843c-35.227577,0 -63.818076,28.655662 -63.818076,63.963531s28.590498,63.963531 63.818076,63.963531s63.818085,-28.65567 63.818085,-63.963531s-28.590508,-63.963531 -63.818085,-63.963531l0,0z" class="st1"/>
  <path fill="#ff7f18" id="svg_5" d="m84.793594,51.07732c0,-0.440556 0.142433,-0.58741 0.569695,-0.58741l8.118034,0c0.427277,0 0.569695,0.146854 0.569695,0.58741l0,42.440166c0,0.440552 -0.142418,0.587402 -0.569695,0.587402l-8.118034,0c-0.569695,0 -0.712112,-0.293694 -0.712112,-0.734253l0.142418,-42.293316l0,0l0,0zm-0.569679,-12.188702c0,-3.37759 2.278755,-5.433514 5.269608,-5.433514c3.133278,0 5.269608,2.202774 5.269608,5.433514c0,3.524441 -2.278748,5.433517 -5.412025,5.433517c-2.990868,0 -5.12719,-1.909077 -5.12719,-5.433517zm-23.499592,29.810905c-1.424221,-6.02092 -4.842342,-18.943874 -6.266563,-25.258495l-0.142418,0c-1.139374,6.314621 -3.84539,16.887955 -5.981716,25.258495l12.390697,0zm-14.384605,8.811111l-4.13023,16.153702c-0.142426,0.440552 -0.284843,0.587402 -0.712105,0.587402l-7.690784,0c-0.569683,0 -0.569683,-0.146851 -0.569683,-0.734253l14.811867,-53.307201c0.284843,-1.027962 0.427261,-1.762222 0.569687,-4.405556c0,-0.440552 0.142422,-0.587406 0.427269,-0.587406l10.966476,0c0.427261,0 0.569679,0.146854 0.569679,0.587406l16.520927,58.006466c0.142433,0.440544 0,0.734261 -0.427261,0.734261l-8.687721,0c-0.427269,0 -0.712112,-0.146866 -0.712112,-0.440567l-4.272659,-16.153694l-16.663349,0l0,-0.440559z" class="st1"/>
 </g>
</svg>