<svg width="128" height="128" xmlns="http://www.w3.org/2000/svg">

 <g>
  <title>background</title>
  <rect fill="none" id="canvas_background" height="402" width="582" y="-1" x="-1"/>
 </g>
 <g>
  <title>Layer 1</title>
  <circle id="svg_4" fill="#F0DB4F" r="63.054329" cy="63.418219" cx="63.854549"/>
  <path id="svg_7" fill="#323330" d="m43.740963,30.773129l13.3582,0l0,42.950611c0,19.283905 -8.137756,26.120934 -21.035332,26.120934c-3.224396,0 -7.216501,-0.525932 -9.826725,-1.577774l1.535425,-12.446892c1.842512,0.701241 4.299192,1.22715 6.909414,1.22715c5.68108,0 9.212555,-2.980232 9.212555,-13.323418l-0.153538,-42.950611l0,0z"/>
  <path id="svg_8" fill="#323330" d="m67.430885,69.175789c2.979019,1.889412 7.77137,3.778847 12.563721,3.778847c5.180954,0 7.900963,-2.676697 7.900963,-6.770439c0,-3.778843 -2.331436,-5.98317 -8.41906,-8.502396c-8.289467,-3.62138 -13.85894,-9.28965 -13.85894,-18.264408c0,-10.234367 7.253273,-18.106956 19.039886,-18.106956c5.699081,0 9.843864,1.417068 12.822937,3.149038l-2.590492,11.021624c-1.942871,-1.102165 -5.569557,-2.834129 -10.361969,-2.834129c-4.921898,0 -7.253304,2.834129 -7.253304,5.825718c0,3.936295 2.719978,5.668262 9.325699,8.659847c8.807678,3.936295 12.952469,9.604561 12.952469,18.264408c0,10.234367 -6.346718,18.894211 -20.205811,18.894211c-5.699005,0 -11.39801,-1.889412 -14.247505,-3.778839l2.331406,-11.336525z"/>
 </g>
</svg>