<svg width="128" height="128" xmlns="http://www.w3.org/2000/svg">

 <g>
  <title>background</title>
  <rect fill="none" id="canvas_background" height="402" width="582" y="-1" x="-1"/>
 </g>
 <g>
  <title>Layer 1</title>
  <path fill="#001d26" id="svg_3" d="m64.001335,127.781708c-35.294168,0 -64.07251,-28.647728 -64.07251,-63.781734s28.778341,-63.781719 64.07251,-63.781719s64.072517,28.647726 64.072517,63.781719s-28.778343,63.781734 -64.072517,63.781734z" class="st0"/>
  <path fill="#31c5f0" id="svg_4" d="m63.999912,7.457095c31.072094,0 56.413708,25.341657 56.413708,56.41385s-25.341614,56.41383 -56.413708,56.41383s-56.413724,-25.34166 -56.413724,-56.41383s25.341596,-56.41385 56.413724,-56.41385m0,-7.258684c-35.147156,0 -63.672377,28.525302 -63.672377,63.672534s28.525221,63.672497 63.672377,63.672497s63.672352,-28.525291 63.672352,-63.672497s-28.525215,-63.672534 -63.672352,-63.672534l0,0z" class="st1"/>
  <path d="m79.187706,58.206417c-3.36113,0 -4.561531,1.992023 -4.561531,3.699471c0,1.849731 0.720245,3.130306 5.281761,5.833759c6.722244,3.841751 8.882965,7.541222 8.882965,12.94812c0,8.110359 -5.281761,12.521263 -12.36412,12.521263c-3.721245,0 -6.962318,-0.853729 -8.762924,-2.134308c-0.240082,-0.142288 -0.360123,-0.426865 -0.360123,-0.853729l0,-7.398918c0,-0.56916 0.240082,-0.711441 0.480164,-0.426865c2.640877,2.134308 5.761925,2.988029 8.642883,2.988029c3.361122,0 4.801598,-1.707451 4.801598,-3.984039c0,-1.849731 -0.96032,-3.414886 -5.281754,-6.118332c-6.122055,-3.414894 -8.642891,-6.972069 -8.642891,-12.805843c0,-6.545197 4.321442,-11.952099 11.883972,-11.952099c3.72123,0 6.242073,0.711433 7.682556,1.422867c0.360123,0.284569 0.480164,0.711437 0.480164,0.996002l0,6.972069c0,0.426861 -0.240082,0.711437 -0.600197,0.569153c-1.920654,-1.422871 -4.681564,-2.2766 -7.562523,-2.2766l0,0zm-36.852295,6.118336c0.96032,0.142296 1.800602,0.142296 3.481167,0.142296c5.041679,0 9.72324,-2.134308 9.72324,-10.102383c0,-6.402912 -3.361118,-9.67551 -9.123043,-9.67551c-1.680561,0 -3.361118,0.142288 -4.081364,0.142288l0,19.493309zm-7.562519,-27.034527c0,-0.284569 0.600204,-0.569145 0.96032,-0.569145c2.760921,-0.142288 6.842281,-0.284573 11.043686,-0.284573c11.883965,0 16.445477,7.683502 16.445477,17.643589c0,12.948124 -7.922638,18.497311 -17.525841,18.497311c-1.680557,0 -2.160721,-0.142281 -3.361122,-0.142281l0,19.493317c0,0.426857 -0.120037,0.569145 -0.480152,0.569145l-6.602203,0c-0.360123,0 -0.480164,-0.142288 -0.480164,-0.569145l0,-54.638218l0,0z"/>
  <path d="m79.187706,58.206417c-3.36113,0 -4.561531,1.992023 -4.561531,3.699471c0,1.849731 0.720245,3.130306 5.281761,5.833759c6.722244,3.841751 8.882965,7.541222 8.882965,12.94812c0,8.110359 -5.281761,12.521263 -12.36412,12.521263c-3.721245,0 -6.962318,-0.853729 -8.762924,-2.134308c-0.240082,-0.142288 -0.360123,-0.426865 -0.360123,-0.853729l0,-7.398918c0,-0.56916 0.240082,-0.711441 0.480164,-0.426865c2.640877,2.134308 5.761925,2.988029 8.642883,2.988029c3.361122,0 4.801598,-1.707451 4.801598,-3.984039c0,-1.849731 -0.96032,-3.414886 -5.281754,-6.118332c-6.122055,-3.414894 -8.642891,-6.972069 -8.642891,-12.805843c0,-6.545197 4.321442,-11.952099 11.883972,-11.952099c3.72123,0 6.242073,0.711433 7.682556,1.422867c0.360123,0.284569 0.480164,0.711437 0.480164,0.996002l0,6.972069c0,0.426861 -0.240082,0.711437 -0.600197,0.569153c-1.920654,-1.422871 -4.681564,-2.2766 -7.562523,-2.2766l0,0zm-36.852295,6.118336c0.96032,0.142296 1.800602,0.142296 3.481167,0.142296c5.041679,0 9.72324,-2.134308 9.72324,-10.102383c0,-6.402912 -3.361118,-9.67551 -9.123043,-9.67551c-1.680561,0 -3.361118,0.142288 -4.081364,0.142288l0,19.493309zm-7.562519,-27.034527c0,-0.284569 0.600204,-0.569145 0.96032,-0.569145c2.760921,-0.142288 6.842281,-0.284573 11.043686,-0.284573c11.883965,0 16.445477,7.683502 16.445477,17.643589c0,12.948124 -7.922638,18.497311 -17.525841,18.497311c-1.680557,0 -2.160721,-0.142281 -3.361122,-0.142281l0,19.493317c0,0.426857 -0.120037,0.569145 -0.480152,0.569145l-6.602203,0c-0.360123,0 -0.480164,-0.142288 -0.480164,-0.569145l0,-54.638218l0,0z"/>
  <path d="m79.187706,58.206417c-3.36113,0 -4.561531,1.992023 -4.561531,3.699471c0,1.849731 0.720245,3.130306 5.281761,5.833759c6.722244,3.841751 8.882965,7.541222 8.882965,12.94812c0,8.110359 -5.281761,12.521263 -12.36412,12.521263c-3.721245,0 -6.962318,-0.853729 -8.762924,-2.134308c-0.240082,-0.142288 -0.360123,-0.426865 -0.360123,-0.853729l0,-7.398918c0,-0.56916 0.240082,-0.711441 0.480164,-0.426865c2.640877,2.134308 5.761925,2.988029 8.642883,2.988029c3.361122,0 4.801598,-1.707451 4.801598,-3.984039c0,-1.849731 -0.96032,-3.414886 -5.281754,-6.118332c-6.122055,-3.414894 -8.642891,-6.972069 -8.642891,-12.805843c0,-6.545197 4.321442,-11.952099 11.883972,-11.952099c3.72123,0 6.242073,0.711433 7.682556,1.422867c0.360123,0.284569 0.480164,0.711437 0.480164,0.996002l0,6.972069c0,0.426861 -0.240082,0.711437 -0.600197,0.569153c-1.920654,-1.422871 -4.681564,-2.2766 -7.562523,-2.2766l0,0zm-36.852295,6.118336c0.96032,0.142296 1.800602,0.142296 3.481167,0.142296c5.041679,0 9.72324,-2.134308 9.72324,-10.102383c0,-6.402912 -3.361118,-9.67551 -9.123043,-9.67551c-1.680561,0 -3.361118,0.142288 -4.081364,0.142288l0,19.493309zm-7.562519,-27.034527c0,-0.284569 0.600204,-0.569145 0.96032,-0.569145c2.760921,-0.142288 6.842281,-0.284573 11.043686,-0.284573c11.883965,0 16.445477,7.683502 16.445477,17.643589c0,12.948124 -7.922638,18.497311 -17.525841,18.497311c-1.680557,0 -2.160721,-0.142281 -3.361122,-0.142281l0,19.493317c0,0.426857 -0.120037,0.569145 -0.480152,0.569145l-6.602203,0c-0.360123,0 -0.480164,-0.142288 -0.480164,-0.569145l0,-54.638218l0,0z"/>
  <path d="m79.187706,57.915512c-3.36113,0 -4.561531,1.992023 -4.561531,3.699471c0,1.849731 0.720245,3.13031 5.281761,5.833763c6.722244,3.841751 8.882965,7.541222 8.882965,12.94812c0,8.110359 -5.281761,12.521263 -12.36412,12.521263c-3.721245,0 -6.962318,-0.853729 -8.762924,-2.134308c-0.240082,-0.142288 -0.360123,-0.426865 -0.360123,-0.853729l0,-7.398918c0,-0.56916 0.240082,-0.711441 0.480164,-0.426865c2.640877,2.134308 5.761925,2.988029 8.642883,2.988029c3.361122,0 4.801598,-1.707451 4.801598,-3.984039c0,-1.849731 -0.96032,-3.414886 -5.281754,-6.118332c-6.122055,-3.414894 -8.642891,-6.972069 -8.642891,-12.805847c0,-6.545197 4.321442,-11.952099 11.883972,-11.952099c3.72123,0 6.242073,0.711433 7.682556,1.422867c0.360123,0.284569 0.480164,0.711437 0.480164,0.996002l0,6.972069c0,0.426861 -0.240082,0.711437 -0.600197,0.569153c-1.920654,-1.422871 -4.681564,-2.2766 -7.562523,-2.2766l0,0zm-36.852295,6.11834c0.96032,0.142296 1.800602,0.142296 3.481167,0.142296c5.041679,0 9.72324,-2.134312 9.72324,-10.102386c0,-6.402912 -3.361118,-9.67551 -9.123043,-9.67551c-1.680561,0 -3.361118,0.142288 -4.081364,0.142288l0,19.493313zm-7.562519,-27.034531c0,-0.284569 0.600204,-0.569145 0.96032,-0.569145c2.760921,-0.142288 6.842281,-0.284573 11.043686,-0.284573c11.883965,0 16.445477,7.683502 16.445477,17.643589c0,12.948128 -7.922638,18.497314 -17.525841,18.497314c-1.680557,0 -2.160721,-0.142281 -3.361122,-0.142281l0,19.493317c0,0.426857 -0.120037,0.569145 -0.480152,0.569145l-6.602203,0c-0.360123,0 -0.480164,-0.142288 -0.480164,-0.569145l0,-54.638222l0,0z"/>
  <path d="m79.187706,57.624607c-3.36113,0 -4.561531,1.992023 -4.561531,3.699471c0,1.849731 0.720245,3.130314 5.281761,5.833767c6.722244,3.841751 8.882965,7.541222 8.882965,12.94812c0,8.110359 -5.281761,12.521263 -12.36412,12.521263c-3.721245,0 -6.962318,-0.853729 -8.762924,-2.134308c-0.240082,-0.142288 -0.360123,-0.426865 -0.360123,-0.853729l0,-7.398918c0,-0.56916 0.240082,-0.711441 0.480164,-0.426865c2.640877,2.134308 5.761925,2.988029 8.642883,2.988029c3.361122,0 4.801598,-1.707451 4.801598,-3.984039c0,-1.849731 -0.96032,-3.414886 -5.281754,-6.118332c-6.122055,-3.414894 -8.642891,-6.972069 -8.642891,-12.805851c0,-6.545197 4.321442,-11.952099 11.883972,-11.952099c3.72123,0 6.242073,0.711433 7.682556,1.422867c0.360123,0.284569 0.480164,0.711437 0.480164,0.996002l0,6.972069c0,0.426861 -0.240082,0.711437 -0.600197,0.569153c-1.920654,-1.422871 -4.681564,-2.2766 -7.562523,-2.2766l0,0zm-36.852295,6.11834c0.96032,0.142296 1.800602,0.142296 3.481167,0.142296c5.041679,0 9.72324,-2.134312 9.72324,-10.102386c0,-6.402912 -3.361118,-9.67551 -9.123043,-9.67551c-1.680561,0 -3.361118,0.142288 -4.081364,0.142288l0,19.493313zm-7.562519,-27.034531c0,-0.284569 0.600204,-0.569145 0.96032,-0.569145c2.760921,-0.142288 6.842281,-0.284573 11.043686,-0.284573c11.883965,0 16.445477,7.683502 16.445477,17.643589c0,12.948132 -7.922638,18.497318 -17.525841,18.497318c-1.680557,0 -2.160721,-0.142281 -3.361122,-0.142281l0,19.493317c0,0.426857 -0.120037,0.569145 -0.480152,0.569145l-6.602203,0c-0.360123,0 -0.480164,-0.142288 -0.480164,-0.569145l0,-54.638226l0,0z"/>
  <path d="m79.187706,57.333702c-3.36113,0 -4.561531,1.992023 -4.561531,3.699471c0,1.849731 0.720245,3.130318 5.281761,5.833771c6.722244,3.841751 8.882965,7.541222 8.882965,12.94812c0,8.110359 -5.281761,12.521263 -12.36412,12.521263c-3.721245,0 -6.962318,-0.853729 -8.762924,-2.134308c-0.240082,-0.142288 -0.360123,-0.426865 -0.360123,-0.853729l0,-7.398918c0,-0.56916 0.240082,-0.711441 0.480164,-0.426865c2.640877,2.134308 5.761925,2.988029 8.642883,2.988029c3.361122,0 4.801598,-1.707451 4.801598,-3.984039c0,-1.849731 -0.96032,-3.414886 -5.281754,-6.118332c-6.122055,-3.414894 -8.642891,-6.972069 -8.642891,-12.805855c0,-6.545197 4.321442,-11.952099 11.883972,-11.952099c3.72123,0 6.242073,0.711433 7.682556,1.422867c0.360123,0.284569 0.480164,0.711437 0.480164,0.996002l0,6.972069c0,0.426861 -0.240082,0.711437 -0.600197,0.569153c-1.920654,-1.422871 -4.681564,-2.2766 -7.562523,-2.2766l0,0zm-36.852295,6.11834c0.96032,0.142296 1.800602,0.142296 3.481167,0.142296c5.041679,0 9.72324,-2.134312 9.72324,-10.102386c0,-6.402912 -3.361118,-9.67551 -9.123043,-9.67551c-1.680561,0 -3.361118,0.142288 -4.081364,0.142288l0,19.493313zm-7.562519,-27.034531c0,-0.284569 0.600204,-0.569145 0.96032,-0.569145c2.760921,-0.142288 6.842281,-0.284573 11.043686,-0.284573c11.883965,0 16.445477,7.683502 16.445477,17.643589c0,12.948135 -7.922638,18.497322 -17.525841,18.497322c-1.680557,0 -2.160721,-0.142281 -3.361122,-0.142281l0,19.493317c0,0.426857 -0.120037,0.569145 -0.480152,0.569145l-6.602203,0c-0.360123,0 -0.480164,-0.142288 -0.480164,-0.569145l0,-54.638229l0,0z"/>
  <path d="m79.478607,57.333702c-3.36113,0 -4.561531,1.992023 -4.561531,3.699471c0,1.849731 0.720245,3.130318 5.281761,5.833771c6.722244,3.841751 8.882965,7.541222 8.882965,12.94812c0,8.110359 -5.281761,12.521263 -12.36412,12.521263c-3.721245,0 -6.962318,-0.853729 -8.762924,-2.134308c-0.240082,-0.142288 -0.360123,-0.426865 -0.360123,-0.853729l0,-7.398918c0,-0.56916 0.240082,-0.711441 0.480164,-0.426865c2.640877,2.134308 5.761925,2.988029 8.642883,2.988029c3.361122,0 4.801598,-1.707451 4.801598,-3.984039c0,-1.849731 -0.96032,-3.414886 -5.281754,-6.118332c-6.122055,-3.414894 -8.642891,-6.972069 -8.642891,-12.805855c0,-6.545197 4.321442,-11.952099 11.883972,-11.952099c3.72123,0 6.242073,0.711433 7.682556,1.422867c0.360123,0.284569 0.480164,0.711437 0.480164,0.996002l0,6.972069c0,0.426861 -0.240082,0.711437 -0.600197,0.569153c-1.920654,-1.422871 -4.681564,-2.2766 -7.562523,-2.2766l0,0zm-36.852291,6.11834c0.96032,0.142296 1.800602,0.142296 3.481167,0.142296c5.041679,0 9.72324,-2.134312 9.72324,-10.102386c0,-6.402912 -3.361118,-9.67551 -9.123043,-9.67551c-1.680561,0 -3.361118,0.142288 -4.081364,0.142288l0,19.493313zm-7.562519,-27.034531c0,-0.284569 0.600204,-0.569145 0.96032,-0.569145c2.760921,-0.142288 6.842281,-0.284573 11.043686,-0.284573c11.883965,0 16.445477,7.683502 16.445477,17.643589c0,12.948135 -7.922638,18.497322 -17.525841,18.497322c-1.680557,0 -2.160721,-0.142281 -3.361122,-0.142281l0,19.493317c0,0.426857 -0.120037,0.569145 -0.480152,0.569145l-6.602203,0c-0.360123,0 -0.480164,-0.142288 -0.480164,-0.569145l0,-54.638229l0,0z"/>
  <path d="m79.769508,57.333702c-3.36113,0 -4.561531,1.992023 -4.561531,3.699471c0,1.849731 0.720245,3.130318 5.281761,5.833771c6.722244,3.841751 8.882965,7.541222 8.882965,12.94812c0,8.110359 -5.281761,12.521263 -12.36412,12.521263c-3.721245,0 -6.962318,-0.853729 -8.762924,-2.134308c-0.240082,-0.142288 -0.360123,-0.426865 -0.360123,-0.853729l0,-7.398918c0,-0.56916 0.240082,-0.711441 0.480164,-0.426865c2.640877,2.134308 5.761925,2.988029 8.642883,2.988029c3.361122,0 4.801598,-1.707451 4.801598,-3.984039c0,-1.849731 -0.96032,-3.414886 -5.281754,-6.118332c-6.122055,-3.414894 -8.642891,-6.972069 -8.642891,-12.805855c0,-6.545197 4.321442,-11.952099 11.883972,-11.952099c3.72123,0 6.242073,0.711433 7.682556,1.422867c0.360123,0.284569 0.480164,0.711437 0.480164,0.996002l0,6.972069c0,0.426861 -0.240082,0.711437 -0.600197,0.569153c-1.920654,-1.422871 -4.681564,-2.2766 -7.562523,-2.2766l0,0zm-36.852287,6.11834c0.96032,0.142296 1.800602,0.142296 3.481167,0.142296c5.041679,0 9.72324,-2.134312 9.72324,-10.102386c0,-6.402912 -3.361118,-9.67551 -9.123043,-9.67551c-1.680561,0 -3.361118,0.142288 -4.081364,0.142288l0,19.493313zm-7.562519,-27.034531c0,-0.284569 0.600204,-0.569145 0.96032,-0.569145c2.760921,-0.142288 6.842281,-0.284573 11.043686,-0.284573c11.883965,0 16.445477,7.683502 16.445477,17.643589c0,12.948135 -7.922638,18.497322 -17.525841,18.497322c-1.680557,0 -2.160721,-0.142281 -3.361122,-0.142281l0,19.493317c0,0.426857 -0.120037,0.569145 -0.480152,0.569145l-6.602203,0c-0.360123,0 -0.480164,-0.142288 -0.480164,-0.569145l0,-54.638229l0,0z"/>
  <path d="m80.06041,57.333702c-3.36113,0 -4.561531,1.992023 -4.561531,3.699471c0,1.849731 0.720245,3.130318 5.281761,5.833771c6.722244,3.841751 8.882965,7.541222 8.882965,12.94812c0,8.110359 -5.281761,12.521263 -12.36412,12.521263c-3.721245,0 -6.962318,-0.853729 -8.762924,-2.134308c-0.240082,-0.142288 -0.360123,-0.426865 -0.360123,-0.853729l0,-7.398918c0,-0.56916 0.240082,-0.711441 0.480164,-0.426865c2.640877,2.134308 5.761925,2.988029 8.642883,2.988029c3.361122,0 4.801598,-1.707451 4.801598,-3.984039c0,-1.849731 -0.96032,-3.414886 -5.281754,-6.118332c-6.122055,-3.414894 -8.642891,-6.972069 -8.642891,-12.805855c0,-6.545197 4.321442,-11.952099 11.883972,-11.952099c3.72123,0 6.242073,0.711433 7.682556,1.422867c0.360123,0.284569 0.480164,0.711437 0.480164,0.996002l0,6.972069c0,0.426861 -0.240082,0.711437 -0.600197,0.569153c-1.920654,-1.422871 -4.681564,-2.2766 -7.562523,-2.2766l0,0zm-36.852283,6.11834c0.96032,0.142296 1.800602,0.142296 3.481167,0.142296c5.041679,0 9.72324,-2.134312 9.72324,-10.102386c0,-6.402912 -3.361118,-9.67551 -9.123043,-9.67551c-1.680561,0 -3.361118,0.142288 -4.081364,0.142288l0,19.493313zm-7.562519,-27.034531c0,-0.284569 0.600204,-0.569145 0.96032,-0.569145c2.760921,-0.142288 6.842281,-0.284573 11.043686,-0.284573c11.883965,0 16.445473,7.683502 16.445473,17.643589c0,12.948135 -7.922634,18.497322 -17.525837,18.497322c-1.680557,0 -2.160721,-0.142281 -3.361122,-0.142281l0,19.493317c0,0.426857 -0.120037,0.569145 -0.480152,0.569145l-6.602203,0c-0.360123,0 -0.480164,-0.142288 -0.480164,-0.569145l0,-54.638229l0,0z"/>
  <path d="m80.351311,57.333702c-3.36113,0 -4.561531,1.992023 -4.561531,3.699471c0,1.849731 0.720245,3.130318 5.281761,5.833771c6.722244,3.841751 8.882965,7.541222 8.882965,12.94812c0,8.110359 -5.281761,12.521263 -12.36412,12.521263c-3.721245,0 -6.962318,-0.853729 -8.762924,-2.134308c-0.240082,-0.142288 -0.360123,-0.426865 -0.360123,-0.853729l0,-7.398918c0,-0.56916 0.240082,-0.711441 0.480164,-0.426865c2.640877,2.134308 5.761925,2.988029 8.642883,2.988029c3.361122,0 4.801598,-1.707451 4.801598,-3.984039c0,-1.849731 -0.96032,-3.414886 -5.281754,-6.118332c-6.122055,-3.414894 -8.642891,-6.972069 -8.642891,-12.805855c0,-6.545197 4.321442,-11.952099 11.883972,-11.952099c3.72123,0 6.242073,0.711433 7.682556,1.422867c0.360123,0.284569 0.480164,0.711437 0.480164,0.996002l0,6.972069c0,0.426861 -0.240082,0.711437 -0.600197,0.569153c-1.920654,-1.422871 -4.681564,-2.2766 -7.562523,-2.2766l0,0zm-36.85228,6.11834c0.96032,0.142296 1.800602,0.142296 3.481167,0.142296c5.041679,0 9.72324,-2.134312 9.72324,-10.102386c0,-6.402912 -3.361118,-9.67551 -9.123043,-9.67551c-1.680561,0 -3.361118,0.142288 -4.081364,0.142288l0,19.493313zm-7.562519,-27.034531c0,-0.284569 0.600204,-0.569145 0.96032,-0.569145c2.760921,-0.142288 6.842281,-0.284573 11.043686,-0.284573c11.883965,0 16.445469,7.683502 16.445469,17.643589c0,12.948135 -7.92263,18.497322 -17.525833,18.497322c-1.680557,0 -2.160721,-0.142281 -3.361122,-0.142281l0,19.493317c0,0.426857 -0.120037,0.569145 -0.480152,0.569145l-6.602203,0c-0.360123,0 -0.480164,-0.142288 -0.480164,-0.569145l0,-54.638229l0,0z"/>
  <path d="m80.642212,57.333702c-3.36113,0 -4.561531,1.992023 -4.561531,3.699471c0,1.849731 0.720245,3.130318 5.281761,5.833771c6.722244,3.841751 8.882965,7.541222 8.882965,12.94812c0,8.110359 -5.281761,12.521263 -12.36412,12.521263c-3.721245,0 -6.962318,-0.853729 -8.762924,-2.134308c-0.240082,-0.142288 -0.360123,-0.426865 -0.360123,-0.853729l0,-7.398918c0,-0.56916 0.240082,-0.711441 0.480164,-0.426865c2.640877,2.134308 5.761925,2.988029 8.642883,2.988029c3.361122,0 4.801598,-1.707451 4.801598,-3.984039c0,-1.849731 -0.96032,-3.414886 -5.281754,-6.118332c-6.122055,-3.414894 -8.642891,-6.972069 -8.642891,-12.805855c0,-6.545197 4.321442,-11.952099 11.883972,-11.952099c3.72123,0 6.242073,0.711433 7.682556,1.422867c0.360123,0.284569 0.480164,0.711437 0.480164,0.996002l0,6.972069c0,0.426861 -0.240082,0.711437 -0.600197,0.569153c-1.920654,-1.422871 -4.681564,-2.2766 -7.562523,-2.2766l0,0zm-36.852276,6.11834c0.96032,0.142296 1.800602,0.142296 3.481167,0.142296c5.041679,0 9.72324,-2.134312 9.72324,-10.102386c0,-6.402912 -3.361118,-9.67551 -9.123043,-9.67551c-1.680561,0 -3.361118,0.142288 -4.081364,0.142288l0,19.493313zm-7.562519,-27.034531c0,-0.284569 0.600204,-0.569145 0.96032,-0.569145c2.760921,-0.142288 6.842281,-0.284573 11.043686,-0.284573c11.883965,0 16.445465,7.683502 16.445465,17.643589c0,12.948135 -7.922626,18.497322 -17.525829,18.497322c-1.680557,0 -2.160721,-0.142281 -3.361122,-0.142281l0,19.493317c0,0.426857 -0.120037,0.569145 -0.480152,0.569145l-6.602203,0c-0.360123,0 -0.480164,-0.142288 -0.480164,-0.569145l0,-54.638229l0,0z"/>
  <path d="m80.933113,57.333702c-3.36113,0 -4.561531,1.992023 -4.561531,3.699471c0,1.849731 0.720245,3.130318 5.281761,5.833771c6.722244,3.841751 8.882965,7.541222 8.882965,12.94812c0,8.110359 -5.281761,12.521263 -12.36412,12.521263c-3.721245,0 -6.962318,-0.853729 -8.762924,-2.134308c-0.240082,-0.142288 -0.360123,-0.426865 -0.360123,-0.853729l0,-7.398918c0,-0.56916 0.240082,-0.711441 0.480164,-0.426865c2.640877,2.134308 5.761925,2.988029 8.642883,2.988029c3.361122,0 4.801598,-1.707451 4.801598,-3.984039c0,-1.849731 -0.96032,-3.414886 -5.281754,-6.118332c-6.122055,-3.414894 -8.642891,-6.972069 -8.642891,-12.805855c0,-6.545197 4.321442,-11.952099 11.883972,-11.952099c3.72123,0 6.242073,0.711433 7.682556,1.422867c0.360123,0.284569 0.480164,0.711437 0.480164,0.996002l0,6.972069c0,0.426861 -0.240082,0.711437 -0.600197,0.569153c-1.920654,-1.422871 -4.681564,-2.2766 -7.562523,-2.2766l0,0zm-36.852272,6.11834c0.96032,0.142296 1.800602,0.142296 3.481167,0.142296c5.041679,0 9.72324,-2.134312 9.72324,-10.102386c0,-6.402912 -3.361118,-9.67551 -9.123043,-9.67551c-1.680561,0 -3.361118,0.142288 -4.081364,0.142288l0,19.493313zm-7.562519,-27.034531c0,-0.284569 0.600204,-0.569145 0.96032,-0.569145c2.760921,-0.142288 6.842281,-0.284573 11.043686,-0.284573c11.883965,0 16.445461,7.683502 16.445461,17.643589c0,12.948135 -7.922623,18.497322 -17.525826,18.497322c-1.680557,0 -2.160721,-0.142281 -3.361122,-0.142281l0,19.493317c0,0.426857 -0.120037,0.569145 -0.480152,0.569145l-6.602203,0c-0.360123,0 -0.480164,-0.142288 -0.480164,-0.569145l0,-54.638229l0,0z"/>
  <path d="m80.933113,57.333702c-3.36113,0 -4.561531,1.992023 -4.561531,3.699471c0,1.849731 0.720245,3.130318 5.281761,5.833771c6.722244,3.841751 8.882965,7.541222 8.882965,12.94812c0,8.110359 -5.281761,12.521263 -12.36412,12.521263c-3.721245,0 -6.962318,-0.853729 -8.762924,-2.134308c-0.240082,-0.142288 -0.360123,-0.426865 -0.360123,-0.853729l0,-7.398918c0,-0.56916 0.240082,-0.711441 0.480164,-0.426865c2.640877,2.134308 5.761925,2.988029 8.642883,2.988029c3.361122,0 4.801598,-1.707451 4.801598,-3.984039c0,-1.849731 -0.96032,-3.414886 -5.281754,-6.118332c-6.122055,-3.414894 -8.642891,-6.972069 -8.642891,-12.805855c0,-6.545197 4.321442,-11.952099 11.883972,-11.952099c3.72123,0 6.242073,0.711433 7.682556,1.422867c0.360123,0.284569 0.480164,0.711437 0.480164,0.996002l0,6.972069c0,0.426861 -0.240082,0.711437 -0.600197,0.569153c-1.920654,-1.422871 -4.681564,-2.2766 -7.562523,-2.2766l0,0zm-36.852272,6.11834c0.96032,0.142296 1.800602,0.142296 3.481167,0.142296c5.041679,0 9.72324,-2.134312 9.72324,-10.102386c0,-6.402912 -3.361118,-9.67551 -9.123043,-9.67551c-1.680561,0 -3.361118,0.142288 -4.081364,0.142288l0,19.493313zm-7.562519,-27.034531c0,-0.284569 0.600204,-0.569145 0.96032,-0.569145c2.760921,-0.142288 6.842281,-0.284573 11.043686,-0.284573c11.883965,0 16.445461,7.683502 16.445461,17.643589c0,12.948135 -7.922623,18.497322 -17.525826,18.497322c-1.680557,0 -2.160721,-0.142281 -3.361122,-0.142281l0,19.493317c0,0.426857 -0.120037,0.569145 -0.480152,0.569145l-6.602203,0c-0.360123,0 -0.480164,-0.142288 -0.480164,-0.569145l0,-54.638229l0,0z"/>
  <path transform="rotate(-2, 63.5273, 63.9492)" fill="#31c5f0" id="svg_5" d="m80.933113,57.333702c-3.36113,0 -4.561531,1.992023 -4.561531,3.699471c0,1.849731 0.720245,3.130318 5.281761,5.833771c6.722244,3.841751 8.882965,7.541222 8.882965,12.94812c0,8.110359 -5.281761,12.521263 -12.36412,12.521263c-3.721245,0 -6.962318,-0.853729 -8.762924,-2.134308c-0.240082,-0.142288 -0.360123,-0.426865 -0.360123,-0.853729l0,-7.398918c0,-0.56916 0.240082,-0.711441 0.480164,-0.426865c2.640877,2.134308 5.761925,2.988029 8.642883,2.988029c3.361122,0 4.801598,-1.707451 4.801598,-3.984039c0,-1.849731 -0.96032,-3.414886 -5.281754,-6.118332c-6.122055,-3.414894 -8.642891,-6.972069 -8.642891,-12.805855c0,-6.545197 4.321442,-11.952099 11.883972,-11.952099c3.72123,0 6.242073,0.711433 7.682556,1.422867c0.360123,0.284569 0.480164,0.711437 0.480164,0.996002l0,6.972069c0,0.426861 -0.240082,0.711437 -0.600197,0.569153c-1.920654,-1.422871 -4.681564,-2.2766 -7.562523,-2.2766l0,0zm-36.852272,6.11834c0.96032,0.142296 1.800602,0.142296 3.481167,0.142296c5.041679,0 9.72324,-2.134312 9.72324,-10.102386c0,-6.402912 -3.361118,-9.67551 -9.123043,-9.67551c-1.680561,0 -3.361118,0.142288 -4.081364,0.142288l0,19.493313zm-7.562519,-27.034531c0,-0.284569 0.600204,-0.569145 0.96032,-0.569145c2.760921,-0.142288 6.842281,-0.284573 11.043686,-0.284573c11.883965,0 16.445461,7.683502 16.445461,17.643589c0,12.948135 -7.922623,18.497322 -17.525826,18.497322c-1.680557,0 -2.160721,-0.142281 -3.361122,-0.142281l0,19.493317c0,0.426857 -0.120037,0.569145 -0.480152,0.569145l-6.602203,0c-0.360123,0 -0.480164,-0.142288 -0.480164,-0.569145l0,-54.638229l0,0z" class="st1"/>
 </g>
</svg>