<svg width="128" height="128" xmlns="http://www.w3.org/2000/svg">

 <g>
  <title>background</title>
  <rect fill="none" id="canvas_background" height="402" width="582" y="-1" x="-1"/>
 </g>
 <g>
  <title>Layer 1</title>
  <path fill="#2a0033" id="svg_2" d="m64.429443,123.220909c-33.489006,0 -60.795425,-26.792076 -60.795425,-59.650291s27.306419,-59.6503 60.795425,-59.6503s60.79541,26.792083 60.79541,59.6503s-27.306412,59.650291 -60.79541,59.650291z" class="st0"/>
  <path fill="#e579ff" id="svg_3" d="m63.999821,7.529366c30.825085,0 55.965221,25.367916 55.965221,56.472298s-25.140137,56.472313 -55.965221,56.472313s-55.965221,-25.367928 -55.965221,-56.472313s25.140129,-56.472298 55.965221,-56.472298m0,-7.266188c-34.86772,0 -63.166164,28.554846 -63.166164,63.738486s28.298445,63.738495 63.166164,63.738495s63.166164,-28.554848 63.166164,-63.738495s-28.298447,-63.738486 -63.166164,-63.738486l0,0z" class="st1"/>
  <path fill="#e579ff" id="svg_4" d="m76.522881,58.668289c0,-0.61808 0,-2.317787 -0.315018,-5.408173c0,-0.463554 0,-0.61808 0.472527,-0.772594c3.465164,-1.390678 11.655571,-3.86298 20.791008,-3.86298c0.472542,0 0.630035,0.154514 0.630035,0.61808l0,8.034992c0,0.463558 -0.157494,0.61808 -0.630035,0.61808c-3.622658,-0.154522 -8.820419,0.30904 -10.710518,1.081631l0,35.230377c0,0.463562 -0.157494,0.61808 -0.63002,0.61808l-8.977943,0c-0.472527,0 -0.630035,-0.154518 -0.630035,-0.61808l0,-35.539413l0,0zm-36.541779,5.099133c1.260059,0.154522 2.362617,0.154522 4.567719,0.154522c6.615326,0 12.91563,-2.317791 12.91563,-11.125381c0,-7.107891 -4.41021,-10.661831 -12.12809,-10.661831c-2.205109,0 -4.410217,0.154526 -5.512772,0.154526l0.157513,21.478165l0,0zm-10.080496,-29.667686c0,-0.463558 0.157513,-0.618076 0.630033,-0.618076c3.622673,-0.154518 8.97794,-0.309036 14.648212,-0.309036c15.750771,0 22.68111,8.498554 22.68111,19.469414c0,14.215775 -10.553009,20.242012 -23.311142,20.242012c-2.205101,0 -2.835136,-0.154518 -4.410213,-0.154518l0,21.478172c0,0.463562 -0.157505,0.61808 -0.630028,0.61808l-8.820435,0c-0.472521,0 -0.630026,-0.154518 -0.630026,-0.61808l-0.157513,-60.107967l0,0l0,0z" class="st1"/>
 </g>
</svg>