<?xml version="1.0" ?><!DOCTYPE svg  PUBLIC '-//W3C//DTD SVG 1.1//EN'  'http://www.w3.org/Graphics/SVG/1.1/DTD/svg11.dtd'><svg enable-background="new 0 0 256 256" height="256px" id="Layer_1" version="1.1" viewBox="0 0 256 256" width="256px" xml:space="preserve" xmlns="http://www.w3.org/2000/svg" xmlns:xlink="http://www.w3.org/1999/xlink"><g><circle cx="128.063" cy="127.926" r="123.39"/><linearGradient gradientUnits="userSpaceOnUse" id="SVGID_1_" x1="68.5605" x2="187.5645" y1="230.9863" y2="24.8655"><stop offset="0" style="stop-color:#5A6160"/><stop offset="1" style="stop-color:#BCC0C5"/></linearGradient><path d="M128.063,246.953c-65.632,0-119.027-53.396-119.027-119.027   c0-65.632,53.395-119.027,119.027-119.027c65.631,0,119.027,53.395,119.027,119.027   C247.09,193.558,193.694,246.953,128.063,246.953z M128.063,14.527c-62.528,0-113.399,50.871-113.399,113.399   c0,62.528,50.871,113.399,113.399,113.399c62.528,0,113.399-50.871,113.399-113.399C241.462,65.398,190.591,14.527,128.063,14.527z   " fill="url(#SVGID_1_)"/><linearGradient gradientUnits="userSpaceOnUse" id="SVGID_2_" x1="93.3525" x2="162.7866" y1="188.0615" y2="67.7982"><stop offset="0" style="stop-color:#5A6160"/><stop offset="1" style="stop-color:#BCC0C5"/></linearGradient><path d="M196.985,116.944c-0.03-0.225-0.096-0.449-0.198-0.658c-0.286-0.577-0.823-0.989-1.456-1.114   l-13.977-2.756c-1.132-3.892-2.689-7.65-4.645-11.204l7.796-11.625c0.316-0.364,0.509-0.839,0.509-1.361   c0-0.54-0.208-1.032-0.545-1.4c-2.123-2.906-4.5-5.68-7.064-8.244c-2.609-2.607-5.427-5.017-8.381-7.163   c-0.218-0.168-0.471-0.293-0.743-0.364c-0.572-0.145-1.18-0.044-1.671,0.286l-11.834,7.936c-3.557-1.956-7.314-3.514-11.205-4.646   l-2.704-13.718c-0.067-1.003-0.852-1.811-1.847-1.915c-7.235-1.137-14.762-1.135-22.005,0.015   c-0.857,0.136-1.539,0.792-1.706,1.643l-2.755,13.975c-3.893,1.131-7.65,2.69-11.205,4.646l-11.742-7.873   c-0.716-0.541-1.716-0.559-2.458-0.021c-2.974,2.158-5.81,4.579-8.431,7.198c-2.608,2.611-5.021,5.433-7.171,8.392   c-0.528,0.695-0.567,1.661-0.069,2.403l7.936,11.834c-1.954,3.551-3.512,7.311-4.644,11.204l-13.976,2.755   c-0.851,0.168-1.507,0.849-1.644,1.705c-0.577,3.628-0.87,7.345-0.87,11.05c0,3.7,0.293,7.416,0.869,11.047   c0.136,0.855,0.792,1.537,1.643,1.704l13.976,2.757c1.132,3.896,2.689,7.652,4.645,11.206l-7.879,11.75   c-0.003,0.004-0.006,0.008-0.008,0.011c-0.532,0.726-0.535,1.71-0.006,2.438c2.156,2.974,4.578,5.81,7.198,8.431   c2.606,2.604,5.428,5.018,8.393,7.17c0.695,0.529,1.662,0.568,2.403,0.069l11.833-7.936c3.552,1.955,7.311,3.513,11.206,4.645   l2.754,13.977c0.167,0.852,0.848,1.508,1.706,1.643c3.634,0.578,7.352,0.871,11.049,0.871c3.695,0,7.412-0.293,11.047-0.871   c0.855-0.135,1.537-0.791,1.705-1.643l2.756-13.977c3.896-1.132,7.653-2.689,11.206-4.645l11.748,7.878   c0.006,0.004,0.013,0.008,0.021,0.013l0.065,0.045c0.006,0.003,0.013,0.003,0.018,0.008c0.168,0.109,0.35,0.196,0.543,0.255   c0.014,0.003,0.025,0.004,0.039,0.009c0.177,0.05,0.359,0.081,0.55,0.081c0.01,0,0.018-0.004,0.029-0.004   c0.022,0,0.044-0.007,0.067-0.007c0.167-0.01,0.33-0.037,0.49-0.084c0.055-0.019,0.106-0.039,0.159-0.06   c0.132-0.052,0.254-0.116,0.373-0.19c0.03-0.021,0.066-0.029,0.097-0.052c2.973-2.155,5.81-4.577,8.429-7.195   c2.559-2.559,4.93-5.326,7.052-8.23c0.346-0.37,0.558-0.867,0.558-1.413c0-0.512-0.187-0.98-0.495-1.341l-7.81-11.645   c1.955-3.554,3.513-7.311,4.645-11.206l13.871-2.737c0.88-0.124,1.604-0.81,1.748-1.723c0.578-3.633,0.871-7.351,0.871-11.048   C197.845,124.252,197.556,120.559,196.985,116.944z M193.099,136.901l-13.796,2.721c-0.775,0.154-1.396,0.736-1.6,1.5   c-1.168,4.404-2.921,8.632-5.209,12.57c-0.397,0.685-0.37,1.534,0.069,2.192l7.833,11.678c-1.809,2.384-3.795,4.659-5.917,6.78   c-2.125,2.125-4.398,4.11-6.777,5.917l-11.681-7.834c-0.658-0.442-1.508-0.468-2.192-0.068c-3.938,2.288-8.165,4.042-12.57,5.209   c-0.764,0.203-1.346,0.822-1.498,1.6l-2.723,13.795c-5.933,0.809-12.027,0.809-17.951,0l-2.722-13.794   c-0.152-0.773-0.734-1.396-1.499-1.599c-4.402-1.169-8.632-2.923-12.569-5.211c-0.686-0.397-1.536-0.372-2.193,0.068l-11.679,7.834   c-2.382-1.809-4.656-3.795-6.778-5.917c-2.125-2.125-4.111-4.398-5.917-6.777l7.832-11.681c0.442-0.657,0.468-1.507,0.071-2.192   c-2.29-3.939-4.043-8.168-5.21-12.57c-0.204-0.764-0.823-1.346-1.599-1.5l-13.795-2.721c-0.404-2.959-0.608-5.972-0.608-8.975   c0-3.005,0.205-6.018,0.608-8.977l13.795-2.721c0.775-0.153,1.396-0.735,1.599-1.499c1.168-4.403,2.922-8.633,5.21-12.571   c0.397-0.684,0.371-1.535-0.071-2.191l-7.833-11.68c1.806-2.378,3.792-4.654,5.916-6.777c2.125-2.124,4.401-4.11,6.779-5.917   l11.682,7.832c0.656,0.442,1.508,0.468,2.192,0.07c3.941-2.29,8.17-4.043,12.569-5.21c0.765-0.203,1.347-0.823,1.499-1.599   l2.723-13.795c5.931-0.808,12.027-0.808,17.95,0l2.723,13.794c0.152,0.776,0.734,1.396,1.498,1.599   c4.398,1.167,8.628,2.92,12.57,5.21c0.685,0.398,1.534,0.372,2.192-0.07l11.681-7.833c2.377,1.806,4.651,3.791,6.777,5.917   c2.125,2.125,4.108,4.398,5.917,6.777l-7.833,11.681c-0.439,0.656-0.467,1.507-0.069,2.191c2.288,3.941,4.042,8.17,5.209,12.571   c0.203,0.764,0.824,1.345,1.6,1.499l13.795,2.721c0.404,2.965,0.608,5.98,0.608,8.977   C193.706,130.926,193.502,133.938,193.099,136.901z" fill="url(#SVGID_2_)"/><linearGradient gradientUnits="userSpaceOnUse" id="SVGID_3_" x1="112.3843" x2="143.7418" y1="155.082" y2="100.7692"><stop offset="0" style="stop-color:#5A6160"/><stop offset="1" style="stop-color:#BCC0C5"/></linearGradient><path d="M128.063,159.289c-17.293,0-31.364-14.068-31.364-31.363c0-17.295,14.071-31.365,31.364-31.365   s31.363,14.07,31.363,31.365C159.426,145.221,145.356,159.289,128.063,159.289z M128.063,100.699   c-15.012,0-27.227,12.215-27.227,27.228c0,15.013,12.215,27.225,27.227,27.225c15.013,0,27.225-12.212,27.225-27.225   C155.288,112.914,143.076,100.699,128.063,100.699z" fill="url(#SVGID_3_)"/></g></svg>