<svg width="50" height="50" xmlns="http://www.w3.org/2000/svg">

 <g>
  <title>background</title>
  <rect fill="none" id="canvas_background" height="402" width="582" y="-1" x="-1"/>
 </g>
 <g>
  <title>Layer 1</title>
  <path id="B_1_" fill="#007fff" d="m31.641346,11.098442l-12.007397,11.1l-8.004934,-5.5l-3.028893,0.9l0,13.9l3.028893,1.799997l8.004934,-5.499998l11.899223,11.1l7.139534,-2.800003l0,-22.199997l-7.031361,-2.799999zm-20.012331,17.6l0,-7.400002l4.976038,3.700001l-4.976038,3.700001zm20.012331,1.799999l-8.004932,-5.5l8.004932,-5.5l0,11z"/>
  <path id="svg_1" fill="#007fff" d="m24.999098,0.148199c-13.835267,0 -24.965895,11.079966 -24.965895,24.852259s11.130628,24.852261 24.965895,24.852261s24.965895,-11.079967 24.965895,-24.852261s-11.130627,-24.852259 -24.965895,-24.852259zm0,44.526965c-10.922579,0 -19.764667,-8.801842 -19.764667,-19.674706s8.842088,-19.674706 19.764667,-19.674706s19.764666,8.801842 19.764666,19.674706s-8.842087,19.674706 -19.764666,19.674706z"/>
 </g>
</svg>