<svg width="170" height="130" xmlns="http://www.w3.org/2000/svg">
 <g>
  <title>background</title>
  <rect x="-1" y="-1" width="24.921328" height="19.528075" id="canvas_background" fill="none"/>
 </g>

 <g>
  <title>Layer 1</title>
  <rect id="svg_1" height="131.699654" width="186.928541" y="-1.088119" x="-7.647275" stroke-opacity="null" stroke-width="1.5" stroke="#000" fill="#ffffff"/>
  <path d="m11.193431,6.66895c-2.6,0 -4.6,2.1 -4.6,4.6c0,2.6 2.1,4.6 4.6,4.6s4.6,-2.1 4.6,-4.6c0,-2.5 -2.1,-4.6 -4.6,-4.6zm0,7.3c-1.5,0 -2.7,-1.2 -2.7,-2.7c0,-1.5 1.2,-2.7 2.7,-2.7c1.5,0 2.7,1.2 2.7,2.7c0,1.5 -1.2,2.7 -2.7,2.7z" id="svg_2"/>
  <path d="m22.393431,6.66895c-2.6,0 -4.6,2.1 -4.6,4.6c0,2.6 2.1,4.6 4.6,4.6c2.6,0 4.6,-2.1 4.6,-4.6c0,-2.5 -2.1,-4.6 -4.6,-4.6zm0,7.3c-1.5,0 -2.7,-1.2 -2.7,-2.7c0,-1.5 1.2,-2.7 2.7,-2.7c1.5,0 2.7,1.2 2.7,2.7c-0.1,1.5 -1.3,2.7 -2.7,2.7z" id="svg_3"/>
  <path d="m33.493431,6.66895c-2.6,0 -4.6,2.1 -4.6,4.6c0,2.6 2.1,4.6 4.6,4.6s4.6,-2.1 4.6,-4.6c0.1,-2.5 -2,-4.6 -4.6,-4.6zm0,7.3c-1.5,0 -2.7,-1.2 -2.7,-2.7c0,-1.5 1.2,-2.7 2.7,-2.7s2.7,1.2 2.7,2.7c0,1.5 -1.2,2.7 -2.7,2.7z" id="svg_4"/>
  <path d="m169.193431,60.76895l0,-40.3l0,-18l-167.7,0l0,18l0,107.4l167.7,0l0,-66.2c0,-0.1 0.1,-0.3 0.1,-0.4s-0.1,-0.3 -0.1,-0.5zm-1.9,65.1l-163.9,0l0,-104.6l163.8,0l0,104.6l0.1,0zm0,-106.6l-163.9,0l0,-14.8l163.8,0l0,14.8l0.1,0z" id="svg_5"/>
  <path d="m95.393431,19.26895l-2.1,0l0,-1.4c0,-4.5 -1,-5.5 -5.5,-5.5l-34.2,0c-8.5,0 -8.5,4.2 -8.5,5.5l0,1.4l-2.1,0l0,-1.4c0,-2.7 1.2,-4.8 3.4,-6.1c1.8,-1 4.2,-1.5 7.2,-1.5l34.2,0c5.7,0 7.6,1.9 7.6,7.6l0,1.4z" id="svg_7"/>
  <rect height="2.1" width="163.8" x="3.393431" y="39.86895" id="svg_9"/>
  <path d="m144.693431,35.96895l-101.7,0l0,-10l101.7,0l0,10zm-99.6,-2.1l97.5,0l0,-5.8l-97.5,0l0,5.8z" id="svg_11"/>
  <rect height="2.1" width="10.8" x="151.593431" y="25.96895" id="svg_14"/>
  <rect height="2.1" width="10.8" x="151.593431" y="33.86895" id="svg_17"/>
  <rect height="2.1" width="10.8" x="151.593431" y="29.96895" id="svg_20"/>
  <polygon points="11.493439972400665,28.168991088867188 13.193442642688751,26.468990325927734 11.893440544605255,25.168991088867188 6.993432819843292,29.968994140625 11.893440544605255,34.868988037109375 13.193442642688751,33.068992614746094 11.593441307544708,31.168991088867188 18.293448746204376,31.168991088867188 18.293448746204376,30.568992614746094 18.293448746204376,29.468994140625 18.293448746204376,28.168991088867188 " id="svg_21"/>
  <polygon points="30.593447983264923,25.168991088867188 29.293448746204376,26.468990325927734 30.89344722032547,28.168991088867188 24.093447983264923,28.168991088867188 24.093447983264923,29.468994140625 24.093447983264923,30.568992614746094 24.093447983264923,31.168991088867188 30.89344722032547,31.168991088867188 29.293448746204376,33.068992614746094 30.593447983264923,34.66899108886719 35.39344722032547,29.868988037109375 " id="svg_22"/>
  <path d="m14.293431,103.06895l39.5,0l0,-23.6l-39.5,0l0,23.6zm2.1,-21.6l35.4,0l0,19.7l-35.4,0l0,-19.7z" id="svg_24"/>
  <path d="m65.693431,103.06895l39.5,0l0,-23.6l-39.5,0l0,23.6zm1.9,-21.6l35.6,0l0,19.7l-35.6,0l0,-19.7z" id="svg_26"/>
  <path d="m115.993431,103.06895l39.4,0l0,-23.6l-39.5,0l0,23.6l0.1,0zm1.9,-21.6l35.6,0l0,19.7l-35.6,0l0,-19.7z" id="svg_28"/>
  <path d="m134.893431,67.66895l-101.9,0l0,-10l101.9,0l0,10zm-99.8,-2.1l97.7,0l0,-5.8l-97.7,0l0,5.8z" id="svg_30"/>
 </g>
</svg>