<svg width="99.999995" height="99.999995" xmlns="http://www.w3.org/2000/svg">

 <g>
  <title>background</title>
  <rect fill="none" id="canvas_background" height="19.528075" width="24.921328" y="-1" x="-1"/>
 </g>
 <g>
  <title>Layer 1</title>
  <rect id="svg_1" height="83.982979" width="69.800423" y="9.057136" x="18.71495" stroke-opacity="null" stroke-width="1.5" stroke="#000" fill="#ffffff"/>
  <path fill="#000000" fill-rule="nonzero" stroke-width="3.8" stroke-linecap="round" stroke-linejoin="round" stroke-miterlimit="4" stroke-dashoffset="0" id="rect4208" d="m20,0c-11.080014,0 -20,8.919986 -20,20l0,60c0,11.080011 8.919986,20 20,20l60,0c11.080011,0 20,-8.919989 20,-20l0,-60c0,-11.080014 -8.919989,-20 -20,-20l-60,0zm30,16.853516a23.975726,5.235906 0 0 1 23.976562,5.234375a23.975726,5.235906 0 0 1 -23.976562,5.236328a23.975726,5.235906 0 0 1 -23.976562,-5.236328a23.975726,5.235906 0 0 1 23.976562,-5.234375zm23.896484,7.232422l0,15.791015a23.975725,5.591856 0 0 1 0.080078,0.431641a23.975725,5.591856 0 0 1 -0.080078,0.36914l0,0.033204l-0.007812,0a23.975725,5.591856 0 0 1 -23.888672,5.189453a23.975725,5.591856 0 0 1 -23.976562,-5.591797a23.975725,5.591856 0 0 1 0.078124,-0.367188l0,-15.787109a23.975728,5.591856 0 0 0 23.896485,5.15625a23.975728,5.591856 0 0 0 23.898437,-5.224609zm0,18.5625l0,15.791015a23.975722,5.591855 0 0 1 0.080078,0.431641a23.975722,5.591855 0 0 1 -0.080078,0.36914l0,0.033204l-0.007812,0a23.975722,5.591855 0 0 1 -23.888672,5.189453a23.975722,5.591855 0 0 1 -23.976562,-5.591797a23.975722,5.591855 0 0 1 0.078124,-0.367188l0,-15.787109a23.975725,5.591856 0 0 0 23.896485,5.15625a23.975725,5.591856 0 0 0 23.898437,-5.224609zm0,18.685546l0,15.789063a23.975719,5.591854 0 0 1 0.080078,0.431641a23.975719,5.591854 0 0 1 -0.080078,0.371093l0,0.033203l-0.007812,0a23.975719,5.591854 0 0 1 -23.888672,5.1875a23.975719,5.591854 0 0 1 -23.976562,-5.591796a23.975719,5.591854 0 0 1 0.078124,-0.365235l0,-15.789062a23.975722,5.591855 0 0 0 23.896485,5.158203a23.975722,5.591855 0 0 0 23.898437,-5.22461z"/>
 </g>
</svg>