<svg width="47.99999999999999" height="47.99999999999999" xmlns="http://www.w3.org/2000/svg">

 <g>
  <title>background</title>
  <rect fill="none" id="canvas_background" height="402" width="582" y="-1" x="-1"/>
 </g>
 <g>
  <title>Layer 1</title>
  <rect stroke="#000" rx="6" id="svg_10" height="46.381985" width="46.247151" y="1.04777" x="0.741598" stroke-width="1.5" fill="#fff"/>
  <path id="svg_3" d="m24,20c-11.215,0 -20,-3.953 -20,-9s8.785,-9 20,-9s20,3.953 20,9s-8.785,9 -20,9zm0,-16c-8.514,0 -18,2.875 -18,7s9.486,7 18,7s18,-2.875 18,-7s-9.486,-7 -18,-7z"/>
  <path id="svg_5" d="m24,28c-11.215,0 -20,-3.953 -20,-9l0,-8c0,-0.553 0.447,-1 1,-1s1,0.447 1,1l0,8c0,4.125 9.486,7 18,7s18,-2.875 18,-7l0,-8c0,-0.553 0.447,-1 1,-1s1,0.447 1,1l0,8c0,5.047 -8.785,9 -20,9z"/>
  <path id="svg_7" d="m24,37c-11.215,0 -20,-3.953 -20,-9l0,-9c0,-0.553 0.447,-1 1,-1s1,0.447 1,1l0,9c0,4.125 9.486,7 18,7s18,-2.875 18,-7l0,-9c0,-0.553 0.447,-1 1,-1s1,0.447 1,1l0,9c0,5.047 -8.785,9 -20,9z"/>
  <path id="svg_9" d="m24,46c-11.215,0 -20,-3.953 -20,-9l0,-9c0,-0.553 0.447,-1 1,-1s1,0.447 1,1l0,9c0,4.125 9.486,7 18,7s18,-2.875 18,-7l0,-9c0,-0.553 0.447,-1 1,-1s1,0.447 1,1l0,9c0,5.047 -8.785,9 -20,9z"/>
 </g>
</svg>