<svg width="310" height="210" xmlns="http://www.w3.org/2000/svg">
 <defs>
  <filter height="200%" width="200%" y="-50%" x="-50%" id="svg_11_blur">
   <feGaussianBlur stdDeviation="0.4" in="SourceGraphic"/>
  </filter>
 </defs>
 <g>
  <title>background</title>
  <rect fill="none" id="canvas_background" height="212" width="312" y="-1" x="-1"/>
 </g>
 <g>
  <title>Layer 1</title>
  <circle id="svg_2" fill="#F4F1F0" r="250" cy="103.932421" cx="153.089779"/>
  <path id="svg_3" fill="#675F58" d="m240.741779,182.556421c-0.564,-0.011 -1.107,-0.065 -1.639,-0.168c-1.129,4.736 -5.415,8.339 -10.46,8.35l-204.633,0c-5.881,-0.011 -10.758,-4.883 -10.769,-10.77l0,-136.881l226.171,0l0,6.82c0.462,-0.076 0.928,-0.133 1.411,-0.133l11.502,0l0,-21.872c-0.011,-13.078 -10.606,-23.668 -23.682,-23.698l-204.633,0c-13.08,0.029 -23.676,10.62 -23.698,23.698l0,152.067c0.022,13.069 10.618,23.671 23.698,23.692l204.634,0c12.19,-0.022 22.113,-9.267 23.421,-21.115l-11.279,0.011l-0.044,0l0,-0.001zm-14.616,-163.167c2.978,0 5.388,2.411 5.388,5.39c0,2.968 -2.409,5.382 -5.388,5.382c-2.974,0 -5.382,-2.414 -5.382,-5.382c0,-2.979 2.408,-5.39 5.382,-5.39zm-42.317,0.328l26.476,0c2.81,0 5.072,2.262 5.072,5.062c0,2.794 -2.263,5.062 -5.072,5.062l-26.476,0c-2.8,0 -5.067,-2.268 -5.067,-5.062c-0.001,-2.8 2.267,-5.062 5.067,-5.062z"/>
  <path id="svg_5" fill="#675F58" d="m254.413779,89.799421c-2.35,-0.659 -4.829,-1.037 -7.39,-1.037c-1.601,0 -3.147,0.168 -4.666,0.429c-5.702,0.979 -10.802,3.681 -14.714,7.595c-4.969,4.959 -8.019,11.809 -8.019,19.374c0,7.574 3.05,14.421 8.019,19.374c3.554,3.554 8.073,6.104 13.13,7.286c2.013,0.467 4.091,0.738 6.25,0.738c2.311,0 4.558,-0.32 6.706,-0.863c4.871,-1.226 9.223,-3.722 12.662,-7.161c4.965,-4.953 8.029,-11.8 8.029,-19.374c0,-7.565 -3.064,-14.415 -8.029,-19.374c-3.271,-3.279 -7.388,-5.699 -11.978,-6.987zm0,33.399c-1.867,1.958 -4.481,3.19 -7.39,3.19c-1.692,0 -3.272,-0.45 -4.666,-1.177c-3.288,-1.704 -5.556,-5.1 -5.556,-9.05c0,-3.96 2.268,-7.349 5.556,-9.052c1.395,-0.725 2.974,-1.172 4.666,-1.172c2.908,0 5.522,1.229 7.39,3.182c1.758,1.834 2.843,4.303 2.843,7.042c0,2.729 -1.085,5.209 -2.843,7.037z"/>
  <path id="svg_6" fill="#FF931E" d="m304.250779,108.166421l-12.381,-1.473c-1.172,-5.632 -3.401,-10.881 -6.456,-15.541l7.726,-9.804c0.554,-0.686 0.499,-1.771 -0.141,-2.398l-8.763,-8.773c-0.623,-0.618 -1.703,-0.689 -2.414,-0.138l-9.793,7.726c-4.66,-3.044 -9.9,-5.271 -15.538,-6.448l-1.469,-12.385c-0.044,-0.442 -0.271,-0.841 -0.607,-1.134c-0.32,-0.282 -0.744,-0.466 -1.194,-0.466l-10.861,0l-1.535,0c-0.885,0 -1.692,0.716 -1.807,1.601l-1.454,12.386c-5.643,1.177 -10.889,3.404 -15.544,6.448l-9.809,-7.726c-0.684,-0.551 -1.764,-0.48 -2.403,0.138l-8.757,8.773c-0.635,0.627 -0.705,1.712 -0.141,2.403l7.715,9.798c-3.038,4.66 -5.273,9.909 -6.445,15.541l-12.381,1.473c-0.89,0.101 -1.606,0.911 -1.606,1.793l0,12.397c0,0.89 0.717,1.703 1.606,1.811l12.381,1.454c1.172,5.643 3.407,10.884 6.445,15.56l-5.024,6.381l-2.69,3.407c-0.564,0.705 -0.494,1.779 0.141,2.397l6.25,6.261l0.119,0.131l2.388,2.376c0.629,0.629 1.72,0.694 2.414,0.141l3.206,-2.517l0.147,-0.131l6.445,-5.078c3.239,2.122 6.772,3.798 10.515,5.057c0.136,0.044 0.261,0.108 0.396,0.152c1.508,0.488 3.049,0.917 4.633,1.247l1.454,12.381c0.114,0.885 0.922,1.596 1.807,1.606l12.396,-0.011c0.879,0.011 1.709,-0.711 1.802,-1.596l1.47,-12.381c1.568,-0.33 3.109,-0.759 4.628,-1.247c3.885,-1.259 7.564,-3.012 10.91,-5.209l6.587,5.198l3.206,2.527c0.711,0.554 1.791,0.488 2.414,-0.141l2.393,-2.387l6.37,-6.381c0.64,-0.618 0.694,-1.692 0.141,-2.397l-7.726,-9.788c3.055,-4.676 5.284,-9.917 6.456,-15.56l12.381,-1.454c0.868,-0.108 1.616,-0.922 1.616,-1.811l0,-12.397c-0.003,-0.88 -0.751,-1.691 -1.619,-1.792zm-53.087,40.709c-1.362,0.174 -2.74,0.293 -4.14,0.293c-4.112,0 -8.019,-0.792 -11.643,-2.159c-12.474,-4.709 -21.354,-16.731 -21.354,-30.849c0,-16.637 12.326,-30.357 28.331,-32.631c1.524,-0.222 3.071,-0.369 4.666,-0.369c2.539,0 5.013,0.317 7.39,0.865c14.653,3.361 25.607,16.46 25.607,32.134c0.001,16.809 -12.586,30.676 -28.857,32.716z"/>
  <text stroke="null" transform="matrix(1.208207368850708,0,0,1.4198960065841675,-36.934035290032625,-15.641126245260239) " opacity="0.84" filter="url(#svg_11_blur)" xml:space="preserve" text-anchor="start" font-family="Helvetica, Arial, sans-serif" font-size="84" id="svg_11" y="113.105112" x="55.983016" stroke-opacity="null" stroke-width="0" fill="#4c4c4c">erd</text>
 </g>
</svg>